<?xml version="1.0" encoding="UTF-8" standalone="no"?>
<svg
   width="1000"
   height="1000"
   viewBox="0 0 499.99998 500"
   version="1.1"
   id="svg12"
   sodipodi:docname="background grid.svg"
   inkscape:version="1.2.2 (732a01da63, 2022-12-09)"
   xmlns:inkscape="http://www.inkscape.org/namespaces/inkscape"
   xmlns:sodipodi="http://sodipodi.sourceforge.net/DTD/sodipodi-0.dtd"
   xmlns="http://www.w3.org/2000/svg"
   xmlns:svg="http://www.w3.org/2000/svg">
  <defs
     id="defs16" />
  <sodipodi:namedview
     id="namedview14"
     pagecolor="#ffffff"
     bordercolor="#000000"
     borderopacity="0.25"
     inkscape:showpageshadow="2"
     inkscape:pageopacity="0.0"
     inkscape:pagecheckerboard="0"
     inkscape:deskcolor="#d1d1d1"
     showgrid="false"
     inkscape:zoom="0.50875"
     inkscape:cx="366.58477"
     inkscape:cy="524.81572"
     inkscape:window-width="1920"
     inkscape:window-height="1017"
     inkscape:window-x="-8"
     inkscape:window-y="-8"
     inkscape:window-maximized="1"
     inkscape:current-layer="svg12" />
  <polygon
     style="opacity:0.1;fill:#ff6600;stroke:none;stroke-width:2.5px;stroke-opacity:1"
     points="4,100 52,16.861561 148,16.861561 196,100 148,183.13844 52,183.13844 "
     id="polygon10-7-5-5-6-0-3-6-4-9-5-4"
     transform="matrix(0.16521869,0.1060383,-0.1060383,0.16521869,60.323158,49.220944)" />
  <polygon
     style="opacity:0.1;fill:#ff6600;stroke:none;stroke-width:2.5px;stroke-opacity:1"
     points="148,16.861561 196,100 148,183.13844 52,183.13844 4,100 52,16.861561 "
     id="polygon10-7-5-5-6-0-3-6-4-9-5-4-0"
     transform="matrix(0.11639633,0.17995077,-0.17995077,0.11639633,177.36282,30.316148)" />
  <polygon
     style="opacity:0.1;fill:#ff6600;stroke:none;stroke-width:2.5px;stroke-opacity:1"
     points="196,100 148,183.13844 52,183.13844 4,100 52,16.861561 148,16.861561 "
     id="polygon10-7-5-5-6-0-3-6-4-9-5-4-0-2"
     transform="matrix(0.09763704,0.13869923,-0.13869923,0.09763704,279.29049,128.70053)" />
  <polygon
     style="opacity:0.1;fill:#ff6600;stroke:none;stroke-width:2.5px;stroke-opacity:1"
     points="148,183.13844 52,183.13844 4,100 52,16.861561 148,16.861561 196,100 "
     id="polygon10-7-5-5-6-0-3-6-4-9-5-4-0-2-3"
     transform="matrix(0.08604977,0.24431166,-0.24431166,0.08604977,339.16771,23.966312)" />
  <polygon
     style="opacity:0.1;fill:#ff6600;stroke:none;stroke-width:2.5px;stroke-opacity:1"
     points="52,183.13844 4,100 52,16.861561 148,16.861561 196,100 148,183.13844 "
     id="polygon10-7-5-5-6-0-3-6-4-9-5-4-0-2-3-2"
     transform="matrix(0.16518862,0.01034032,-0.01034032,0.16518862,427.7584,88.58961)" />
  <polygon
     style="opacity:0.1;fill:#ff6600;stroke:none;stroke-width:2.5px;stroke-opacity:1"
     points="52,183.13844 4,100 52,16.861561 148,16.861561 196,100 148,183.13844 "
     id="polygon10-7-5-5-6-0-3-6-4-9-5-4-0-2-3-2-5"
     transform="matrix(0.23688484,0.01427848,-0.01427848,0.23688484,359.06614,200.92789)" />
  <polygon
     style="opacity:0.1;fill:#ff6600;stroke:none;stroke-width:2.5px;stroke-opacity:1"
     points="52,16.861561 148,16.861561 196,100 148,183.13844 52,183.13844 4,100 "
     id="polygon10-7-5-5-6-0-3-6-4-9-5-4-0-2-3-2-5-9"
     transform="matrix(0.12981521,0.15802006,-0.15802006,0.12981521,455.89173,303.4032)" />
  <polygon
     style="opacity:0.1;fill:#ff6600;stroke:none;stroke-width:2.5px;stroke-opacity:1"
     points="148,16.861561 196,100 148,183.13844 52,183.13844 4,100 52,16.861561 "
     id="polygon10-7-5-5-6-0-3-6-4-9-5-4-0-2-3-2-5-9-3"
     transform="matrix(0.19393637,0.02795902,-0.02795902,0.19393637,302.81257,349.30922)" />
  <polygon
     style="opacity:0.1;fill:#ff6600;stroke:none;stroke-width:2.5px;stroke-opacity:1"
     points="196,100 148,183.13844 52,183.13844 4,100 52,16.861561 148,16.861561 "
     id="polygon10-7-5-5-6-0-3-6-4-9-5-4-0-2-3-2-5-9-3-8"
     transform="matrix(0.2255323,0.01114079,-0.01114079,0.2255323,400.18246,435.30074)" />
  <polygon
     style="opacity:0.1;fill:#ff6600;stroke:none;stroke-width:2.5px;stroke-opacity:1"
     points="196,100 148,183.13844 52,183.13844 4,100 52,16.861561 148,16.861561 "
     id="polygon10-7-5-5-6-0-3-6-4-9-5-4-0-2-3-2-5-9-3-8-3"
     transform="matrix(0.08963813,0.21973463,-0.21973463,0.08963813,241.01947,409.35755)" />
  <polygon
     style="opacity:0.1;fill:#ff6600;stroke:none;stroke-width:2.5px;stroke-opacity:1"
     points="4,100 52,16.861561 148,16.861561 196,100 148,183.13844 52,183.13844 "
     id="polygon10-7-5-5-6-0-3-6-4-9-5-4-0-2-3-2-5-9-3-8-3-7"
     transform="matrix(0.23636489,0.02121182,-0.02121182,0.23636489,163.25127,278.91064)" />
  <polygon
     style="opacity:0.1;fill:#ff6600;stroke:none;stroke-width:2.5px;stroke-opacity:1"
     points="52,16.861561 148,16.861561 196,100 148,183.13844 52,183.13844 4,100 "
     id="polygon10-7-5-5-6-0-3-6-4-9-5-4-0-2-3-2-5-9-3-8-3-7-2"
     transform="matrix(0.27261679,0.00207165,-0.00207165,0.27261679,64.345977,174.98815)" />
  <polygon
     style="opacity:0.1;fill:#ff6600;stroke:none;stroke-width:2.5px;stroke-opacity:1"
     points="148,16.861561 196,100 148,183.13844 52,183.13844 4,100 52,16.861561 "
     id="polygon10-7-5-5-6-0-3-6-4-9-5-4-0-2-3-2-5-9-3-8-3-7-2-4"
     transform="matrix(0.12217224,0.17650844,-0.17650844,0.12217224,71.281281,379.95993)" />
</svg>
