<?xml version="1.0" encoding="UTF-8" standalone="no"?>
<svg
   width="400px"
   height="400px"
   viewBox="0 0 200 200"
   version="1.1"
   id="svg12"
   sodipodi:docname="Regular_hexagon.svg"
   inkscape:version="1.2.2 (732a01da63, 2022-12-09)"
   xmlns:inkscape="http://www.inkscape.org/namespaces/inkscape"
   xmlns:sodipodi="http://sodipodi.sourceforge.net/DTD/sodipodi-0.dtd"
   xmlns="http://www.w3.org/2000/svg"
   xmlns:svg="http://www.w3.org/2000/svg">
  <defs
     id="defs16">
    <filter
       inkscape:collect="always"
       style="color-interpolation-filters:sRGB"
       id="filter3881"
       x="-0.10736611"
       y="-0.1239757"
       width="1.2147322"
       height="1.2479514">
      <feGaussianBlur
         inkscape:collect="always"
         stdDeviation="8.589289"
         id="feGaussianBlur3883" />
    </filter>
    <filter
       inkscape:collect="always"
       style="color-interpolation-filters:sRGB"
       id="filter3885"
       x="-0.10736611"
       y="-0.1239757"
       width="1.2147322"
       height="1.2479514">
      <feGaussianBlur
         inkscape:collect="always"
         stdDeviation="8.589289"
         id="feGaussianBlur3887" />
    </filter>
    <filter
       inkscape:collect="always"
       style="color-interpolation-filters:sRGB"
       id="filter3889"
       x="-0.10736611"
       y="-0.1239757"
       width="1.2147322"
       height="1.2479514">
      <feGaussianBlur
         inkscape:collect="always"
         stdDeviation="8.589289"
         id="feGaussianBlur3891" />
    </filter>
    <filter
       inkscape:collect="always"
       style="color-interpolation-filters:sRGB"
       id="filter3893"
       x="-0.10736611"
       y="-0.1239757"
       width="1.2147322"
       height="1.2479514">
      <feGaussianBlur
         inkscape:collect="always"
         stdDeviation="8.589289"
         id="feGaussianBlur3895" />
    </filter>
    <filter
       inkscape:collect="always"
       style="color-interpolation-filters:sRGB"
       id="filter3897"
       x="-0.10736613"
       y="-0.12397573"
       width="1.2147323"
       height="1.2479515">
      <feGaussianBlur
         inkscape:collect="always"
         stdDeviation="8.589291"
         id="feGaussianBlur3899" />
    </filter>
    <filter
       inkscape:collect="always"
       style="color-interpolation-filters:sRGB"
       id="filter3901"
       x="-0.10736613"
       y="-0.12397573"
       width="1.2147323"
       height="1.2479515">
      <feGaussianBlur
         inkscape:collect="always"
         stdDeviation="8.589291"
         id="feGaussianBlur3903" />
    </filter>
    <filter
       inkscape:collect="always"
       style="color-interpolation-filters:sRGB"
       id="filter3905"
       x="-0.10736613"
       y="-0.12397573"
       width="1.2147323"
       height="1.2479515">
      <feGaussianBlur
         inkscape:collect="always"
         stdDeviation="8.589291"
         id="feGaussianBlur3907" />
    </filter>
    <filter
       inkscape:collect="always"
       style="color-interpolation-filters:sRGB"
       id="filter3909"
       x="-0.10736613"
       y="-0.12397573"
       width="1.2147323"
       height="1.2479515">
      <feGaussianBlur
         inkscape:collect="always"
         stdDeviation="8.589291"
         id="feGaussianBlur3911" />
    </filter>
    <filter
       inkscape:collect="always"
       style="color-interpolation-filters:sRGB"
       id="filter3913"
       x="-0.10736613"
       y="-0.12397573"
       width="1.2147323"
       height="1.2479515">
      <feGaussianBlur
         inkscape:collect="always"
         stdDeviation="8.589291"
         id="feGaussianBlur3915" />
    </filter>
    <filter
       inkscape:collect="always"
       style="color-interpolation-filters:sRGB"
       id="filter3917"
       x="-0.10736636"
       y="-0.12397599"
       width="1.2147327"
       height="1.247952">
      <feGaussianBlur
         inkscape:collect="always"
         stdDeviation="8.5893085"
         id="feGaussianBlur3919" />
    </filter>
    <filter
       inkscape:collect="always"
       style="color-interpolation-filters:sRGB"
       id="filter3921"
       x="-0.10736636"
       y="-0.12397599"
       width="1.2147327"
       height="1.247952">
      <feGaussianBlur
         inkscape:collect="always"
         stdDeviation="8.5893085"
         id="feGaussianBlur3923" />
    </filter>
    <filter
       inkscape:collect="always"
       style="color-interpolation-filters:sRGB"
       id="filter3925"
       x="-0.10736636"
       y="-0.12397599"
       width="1.2147327"
       height="1.247952">
      <feGaussianBlur
         inkscape:collect="always"
         stdDeviation="8.5893085"
         id="feGaussianBlur3927" />
    </filter>
    <filter
       inkscape:collect="always"
       style="color-interpolation-filters:sRGB"
       id="filter3929"
       x="-0.10736636"
       y="-0.12397599"
       width="1.2147327"
       height="1.247952">
      <feGaussianBlur
         inkscape:collect="always"
         stdDeviation="8.5893085"
         id="feGaussianBlur3931" />
    </filter>
    <filter
       inkscape:collect="always"
       style="color-interpolation-filters:sRGB"
       id="filter3933"
       x="-0.10736638"
       y="-0.12397602"
       width="1.2147328"
       height="1.247952">
      <feGaussianBlur
         inkscape:collect="always"
         stdDeviation="8.5893105"
         id="feGaussianBlur3935" />
    </filter>
    <filter
       inkscape:collect="always"
       style="color-interpolation-filters:sRGB"
       id="filter3937"
       x="-0.10736638"
       y="-0.12397602"
       width="1.2147328"
       height="1.247952">
      <feGaussianBlur
         inkscape:collect="always"
         stdDeviation="8.5893105"
         id="feGaussianBlur3939" />
    </filter>
    <filter
       inkscape:collect="always"
       style="color-interpolation-filters:sRGB"
       id="filter3941"
       x="-0.10736638"
       y="-0.12397602"
       width="1.2147328"
       height="1.247952">
      <feGaussianBlur
         inkscape:collect="always"
         stdDeviation="8.5893105"
         id="feGaussianBlur3943" />
    </filter>
    <filter
       inkscape:collect="always"
       style="color-interpolation-filters:sRGB"
       id="filter3945"
       x="-0.10736638"
       y="-0.12397602"
       width="1.2147328"
       height="1.247952">
      <feGaussianBlur
         inkscape:collect="always"
         stdDeviation="8.5893105"
         id="feGaussianBlur3947" />
    </filter>
    <filter
       inkscape:collect="always"
       style="color-interpolation-filters:sRGB"
       id="filter3949"
       x="-0.10736638"
       y="-0.12397602"
       width="1.2147328"
       height="1.247952">
      <feGaussianBlur
         inkscape:collect="always"
         stdDeviation="8.5893105"
         id="feGaussianBlur3951" />
    </filter>
    <filter
       inkscape:collect="always"
       style="color-interpolation-filters:sRGB"
       id="filter3953"
       x="-0.10736611"
       y="-0.1239757"
       width="1.2147322"
       height="1.2479514">
      <feGaussianBlur
         inkscape:collect="always"
         stdDeviation="8.589289"
         id="feGaussianBlur3955" />
    </filter>
    <filter
       inkscape:collect="always"
       style="color-interpolation-filters:sRGB"
       id="filter3957"
       x="-0.10736611"
       y="-0.1239757"
       width="1.2147322"
       height="1.2479514">
      <feGaussianBlur
         inkscape:collect="always"
         stdDeviation="8.589289"
         id="feGaussianBlur3959" />
    </filter>
    <filter
       inkscape:collect="always"
       style="color-interpolation-filters:sRGB"
       id="filter3961"
       x="-0.10736611"
       y="-0.1239757"
       width="1.2147322"
       height="1.2479514">
      <feGaussianBlur
         inkscape:collect="always"
         stdDeviation="8.589289"
         id="feGaussianBlur3963" />
    </filter>
    <filter
       inkscape:collect="always"
       style="color-interpolation-filters:sRGB"
       id="filter3965"
       x="-0.10736611"
       y="-0.1239757"
       width="1.2147322"
       height="1.2479514">
      <feGaussianBlur
         inkscape:collect="always"
         stdDeviation="8.589289"
         id="feGaussianBlur3967" />
    </filter>
    <filter
       inkscape:collect="always"
       style="color-interpolation-filters:sRGB"
       id="filter3969"
       x="-0.10736613"
       y="-0.12397573"
       width="1.2147323"
       height="1.2479515">
      <feGaussianBlur
         inkscape:collect="always"
         stdDeviation="8.589291"
         id="feGaussianBlur3971" />
    </filter>
    <filter
       inkscape:collect="always"
       style="color-interpolation-filters:sRGB"
       id="filter3973"
       x="-0.10736613"
       y="-0.12397573"
       width="1.2147323"
       height="1.2479515">
      <feGaussianBlur
         inkscape:collect="always"
         stdDeviation="8.589291"
         id="feGaussianBlur3975" />
    </filter>
    <filter
       inkscape:collect="always"
       style="color-interpolation-filters:sRGB"
       id="filter3977"
       x="-0.10736613"
       y="-0.12397573"
       width="1.2147323"
       height="1.2479515">
      <feGaussianBlur
         inkscape:collect="always"
         stdDeviation="8.589291"
         id="feGaussianBlur3979" />
    </filter>
    <filter
       inkscape:collect="always"
       style="color-interpolation-filters:sRGB"
       id="filter3981"
       x="-0.10736613"
       y="-0.12397573"
       width="1.2147323"
       height="1.2479515">
      <feGaussianBlur
         inkscape:collect="always"
         stdDeviation="8.589291"
         id="feGaussianBlur3983" />
    </filter>
    <filter
       inkscape:collect="always"
       style="color-interpolation-filters:sRGB"
       id="filter3985"
       x="-0.10736636"
       y="-0.12397599"
       width="1.2147327"
       height="1.247952">
      <feGaussianBlur
         inkscape:collect="always"
         stdDeviation="8.5893085"
         id="feGaussianBlur3987" />
    </filter>
    <filter
       inkscape:collect="always"
       style="color-interpolation-filters:sRGB"
       id="filter3989"
       x="-0.10736636"
       y="-0.12397599"
       width="1.2147327"
       height="1.247952">
      <feGaussianBlur
         inkscape:collect="always"
         stdDeviation="8.5893085"
         id="feGaussianBlur3991" />
    </filter>
    <filter
       inkscape:collect="always"
       style="color-interpolation-filters:sRGB"
       id="filter3993"
       x="-0.10736636"
       y="-0.12397599"
       width="1.2147327"
       height="1.247952">
      <feGaussianBlur
         inkscape:collect="always"
         stdDeviation="8.5893085"
         id="feGaussianBlur3995" />
    </filter>
    <filter
       inkscape:collect="always"
       style="color-interpolation-filters:sRGB"
       id="filter3997"
       x="-0.10736636"
       y="-0.12397599"
       width="1.2147327"
       height="1.247952">
      <feGaussianBlur
         inkscape:collect="always"
         stdDeviation="8.5893085"
         id="feGaussianBlur3999" />
    </filter>
    <filter
       inkscape:collect="always"
       style="color-interpolation-filters:sRGB"
       id="filter4001"
       x="-0.10736636"
       y="-0.12397599"
       width="1.2147327"
       height="1.247952">
      <feGaussianBlur
         inkscape:collect="always"
         stdDeviation="8.5893085"
         id="feGaussianBlur4003" />
    </filter>
    <filter
       inkscape:collect="always"
       style="color-interpolation-filters:sRGB"
       id="filter4005"
       x="-0.10736638"
       y="-0.12397602"
       width="1.2147328"
       height="1.247952">
      <feGaussianBlur
         inkscape:collect="always"
         stdDeviation="8.5893105"
         id="feGaussianBlur4007" />
    </filter>
    <filter
       inkscape:collect="always"
       style="color-interpolation-filters:sRGB"
       id="filter4009"
       x="-0.10736638"
       y="-0.12397602"
       width="1.2147328"
       height="1.247952">
      <feGaussianBlur
         inkscape:collect="always"
         stdDeviation="8.5893105"
         id="feGaussianBlur4011" />
    </filter>
    <filter
       inkscape:collect="always"
       style="color-interpolation-filters:sRGB"
       id="filter4013"
       x="-0.10736638"
       y="-0.12397602"
       width="1.2147328"
       height="1.247952">
      <feGaussianBlur
         inkscape:collect="always"
         stdDeviation="8.5893105"
         id="feGaussianBlur4015" />
    </filter>
    <filter
       inkscape:collect="always"
       style="color-interpolation-filters:sRGB"
       id="filter4017"
       x="-0.10736638"
       y="-0.12397602"
       width="1.2147328"
       height="1.247952">
      <feGaussianBlur
         inkscape:collect="always"
         stdDeviation="8.5893105"
         id="feGaussianBlur4019" />
    </filter>
    <filter
       inkscape:collect="always"
       style="color-interpolation-filters:sRGB"
       id="filter4021"
       x="-0.10736611"
       y="-0.1239757"
       width="1.2147322"
       height="1.2479514">
      <feGaussianBlur
         inkscape:collect="always"
         stdDeviation="8.589289"
         id="feGaussianBlur4023" />
    </filter>
    <filter
       inkscape:collect="always"
       style="color-interpolation-filters:sRGB"
       id="filter4025"
       x="-0.10736611"
       y="-0.1239757"
       width="1.2147322"
       height="1.2479514">
      <feGaussianBlur
         inkscape:collect="always"
         stdDeviation="8.589289"
         id="feGaussianBlur4027" />
    </filter>
    <filter
       inkscape:collect="always"
       style="color-interpolation-filters:sRGB"
       id="filter4029"
       x="-0.10736611"
       y="-0.1239757"
       width="1.2147322"
       height="1.2479514">
      <feGaussianBlur
         inkscape:collect="always"
         stdDeviation="8.589289"
         id="feGaussianBlur4031" />
    </filter>
    <filter
       inkscape:collect="always"
       style="color-interpolation-filters:sRGB"
       id="filter4033"
       x="-0.10736611"
       y="-0.1239757"
       width="1.2147322"
       height="1.2479514">
      <feGaussianBlur
         inkscape:collect="always"
         stdDeviation="8.589289"
         id="feGaussianBlur4035" />
    </filter>
    <filter
       inkscape:collect="always"
       style="color-interpolation-filters:sRGB"
       id="filter4037"
       x="-0.10736613"
       y="-0.12397573"
       width="1.2147323"
       height="1.2479515">
      <feGaussianBlur
         inkscape:collect="always"
         stdDeviation="8.589291"
         id="feGaussianBlur4039" />
    </filter>
    <filter
       inkscape:collect="always"
       style="color-interpolation-filters:sRGB"
       id="filter4041"
       x="-0.10736613"
       y="-0.12397573"
       width="1.2147323"
       height="1.2479515">
      <feGaussianBlur
         inkscape:collect="always"
         stdDeviation="8.589291"
         id="feGaussianBlur4043" />
    </filter>
    <filter
       inkscape:collect="always"
       style="color-interpolation-filters:sRGB"
       id="filter4045"
       x="-0.10736613"
       y="-0.12397573"
       width="1.2147323"
       height="1.2479515">
      <feGaussianBlur
         inkscape:collect="always"
         stdDeviation="8.589291"
         id="feGaussianBlur4047" />
    </filter>
    <filter
       inkscape:collect="always"
       style="color-interpolation-filters:sRGB"
       id="filter4049"
       x="-0.10736613"
       y="-0.12397573"
       width="1.2147323"
       height="1.2479515">
      <feGaussianBlur
         inkscape:collect="always"
         stdDeviation="8.589291"
         id="feGaussianBlur4051" />
    </filter>
    <filter
       inkscape:collect="always"
       style="color-interpolation-filters:sRGB"
       id="filter4053"
       x="-0.10736613"
       y="-0.12397573"
       width="1.2147323"
       height="1.2479515">
      <feGaussianBlur
         inkscape:collect="always"
         stdDeviation="8.589291"
         id="feGaussianBlur4055" />
    </filter>
    <filter
       inkscape:collect="always"
       style="color-interpolation-filters:sRGB"
       id="filter3881-6"
       x="-0.10736611"
       y="-0.1239757"
       width="1.2147322"
       height="1.2479514">
      <feGaussianBlur
         inkscape:collect="always"
         stdDeviation="8.589289"
         id="feGaussianBlur3883-8" />
    </filter>
    <filter
       inkscape:collect="always"
       style="color-interpolation-filters:sRGB"
       id="filter3885-8"
       x="-0.10736611"
       y="-0.1239757"
       width="1.2147322"
       height="1.2479514">
      <feGaussianBlur
         inkscape:collect="always"
         stdDeviation="8.589289"
         id="feGaussianBlur3887-8" />
    </filter>
    <filter
       inkscape:collect="always"
       style="color-interpolation-filters:sRGB"
       id="filter3889-6"
       x="-0.10736611"
       y="-0.1239757"
       width="1.2147322"
       height="1.2479514">
      <feGaussianBlur
         inkscape:collect="always"
         stdDeviation="8.589289"
         id="feGaussianBlur3891-6" />
    </filter>
    <filter
       inkscape:collect="always"
       style="color-interpolation-filters:sRGB"
       id="filter3893-1"
       x="-0.10736611"
       y="-0.1239757"
       width="1.2147322"
       height="1.2479514">
      <feGaussianBlur
         inkscape:collect="always"
         stdDeviation="8.589289"
         id="feGaussianBlur3895-7" />
    </filter>
  </defs>
  <sodipodi:namedview
     id="namedview14"
     pagecolor="#ffffff"
     bordercolor="#000000"
     borderopacity="0.25"
     inkscape:showpageshadow="2"
     inkscape:pageopacity="0.0"
     inkscape:pagecheckerboard="0"
     inkscape:deskcolor="#d1d1d1"
     showgrid="false"
     inkscape:zoom="1.4389623"
     inkscape:cx="238.71369"
     inkscape:cy="238.36622"
     inkscape:window-width="1920"
     inkscape:window-height="1017"
     inkscape:window-x="-8"
     inkscape:window-y="-8"
     inkscape:window-maximized="1"
     inkscape:current-layer="svg12" />
  <polygon
     style="fill:#ff6600;fill-opacity:0.290155;stroke:none;stroke-width:2.5px;filter:url(#filter3881)"
     points="148,183.13844 52,183.13844 4,100 52,16.861561 148,16.861561 196,100 "
     id="polygon10-6"
     transform="matrix(0.13988845,0,0,0.13988845,-15.021622,116.39156)" />
  <polygon
     style="fill:#ff6600;fill-opacity:0.512953;stroke:none;stroke-width:2.5px;filter:url(#filter3885)"
     points="4,100 52,16.861561 148,16.861561 196,100 148,183.13844 52,183.13844 "
     id="polygon10-7-1"
     transform="matrix(0.13988845,0,0,0.13988845,-15.021622,139.65178)" />
  <polygon
     style="fill:#ff6600;fill-opacity:0.694301;stroke:none;stroke-width:2.5px;filter:url(#filter3889)"
     points="4,100 52,16.861561 148,16.861561 196,100 148,183.13844 52,183.13844 "
     id="polygon10-0-3"
     transform="matrix(0.13988845,0,0,0.13988845,-15.021622,162.912)" />
  <polygon
     style="fill:#ff6600;stroke:none;stroke-width:2.5px;filter:url(#filter3893)"
     points="148,16.861561 196,100 148,183.13844 52,183.13844 4,100 52,16.861561 "
     id="polygon10-7-5-5"
     transform="matrix(0.13988845,0,0,0.13988845,-15.021622,186.17221)" />
  <polygon
     style="fill:#ff6600;fill-opacity:0.11399;stroke:none;stroke-width:2.5px;filter:url(#filter3897)"
     points="52,16.861561 148,16.861561 196,100 148,183.13844 52,183.13844 4,100 "
     id="polygon10-7-5-6"
     transform="matrix(0.13988839,0,0,0.13988845,5.1306705,81.611843)" />
  <polygon
     style="fill:#ff6600;fill-opacity:0;stroke:none;stroke-width:2.5px;filter:url(#filter3901)"
     points="52,183.13844 4,100 52,16.861561 148,16.861561 196,100 148,183.13844 "
     id="polygon10-6-3"
     transform="matrix(0.13988839,0,0,0.13988845,5.1306705,104.87206)" />
  <polygon
     style="fill:#ff6600;fill-opacity:0.544041;stroke:none;stroke-width:2.5px;filter:url(#filter3905)"
     points="52,16.861561 148,16.861561 196,100 148,183.13844 52,183.13844 4,100 "
     id="polygon10-7-1-8"
     transform="matrix(0.13988839,0,0,0.13988845,5.1306705,128.13228)" />
  <polygon
     style="fill:#ff6600;fill-opacity:0.621762;stroke:none;stroke-width:2.5px;filter:url(#filter3909)"
     points="52,16.861561 148,16.861561 196,100 148,183.13844 52,183.13844 4,100 "
     id="polygon10-0-3-6"
     transform="matrix(0.13988839,0,0,0.13988845,5.1306705,151.3925)" />
  <polygon
     style="fill:#ff6600;fill-opacity:0.906736;stroke:none;stroke-width:2.5px;filter:url(#filter3913)"
     points="196,100 148,183.13844 52,183.13844 4,100 52,16.861561 148,16.861561 "
     id="polygon10-7-5-5-6"
     transform="matrix(0.13988839,0,0,0.13988845,5.1306705,174.65271)" />
  <polygon
     style="fill:#ff6600;fill-opacity:0.305699;stroke:none;stroke-width:2.5px;filter:url(#filter3917)"
     points="148,183.13844 52,183.13844 4,100 52,16.861561 148,16.861561 196,100 "
     id="polygon10-6-2"
     transform="matrix(0.13988813,0,0,0.13988813,25.161868,116.74593)" />
  <polygon
     style="fill:#ff6600;fill-opacity:0.606218;stroke:none;stroke-width:2.5px;filter:url(#filter3921)"
     points="4,100 52,16.861561 148,16.861561 196,100 148,183.13844 52,183.13844 "
     id="polygon10-7-1-6"
     transform="matrix(0.13988813,0,0,0.13988813,25.161868,140.00609)" />
  <polygon
     style="fill:#ff6600;fill-opacity:0.678756;stroke:none;stroke-width:2.5px;filter:url(#filter3925)"
     points="4,100 52,16.861561 148,16.861561 196,100 148,183.13844 52,183.13844 "
     id="polygon10-0-3-7"
     transform="matrix(0.13988813,0,0,0.13988813,25.161868,163.26626)" />
  <polygon
     style="fill:#ff6600;stroke:none;stroke-width:2.5px;filter:url(#filter3929)"
     points="148,16.861561 196,100 148,183.13844 52,183.13844 4,100 52,16.861561 "
     id="polygon10-7-5-5-2"
     transform="matrix(0.13988813,0,0,0.13988813,25.161868,186.52642)" />
  <polygon
     style="fill:#ff6600;fill-opacity:0.0829015;stroke:none;stroke-width:2.5px;filter:url(#filter3933)"
     points="52,183.13844 4,100 52,16.861561 148,16.861561 196,100 148,183.13844 "
     id="polygon10-0-9-1"
     transform="matrix(0.13988807,0,0,0.13988813,45.314114,58.706128)" />
  <polygon
     style="fill:#ff6600;fill-opacity:0.145078;stroke:none;stroke-width:2.5px;filter:url(#filter3937)"
     points="52,183.13844 4,100 52,16.861561 148,16.861561 196,100 148,183.13844 "
     id="polygon10-6-3-1"
     transform="matrix(0.13988807,0,0,0.13988813,45.314114,105.22646)" />
  <polygon
     style="fill:#ff6600;fill-opacity:0.476684;stroke:none;stroke-width:2.5px;filter:url(#filter3941)"
     points="52,16.861561 148,16.861561 196,100 148,183.13844 52,183.13844 4,100 "
     id="polygon10-7-1-8-0"
     transform="matrix(0.13988807,0,0,0.13988813,45.314114,128.48662)" />
  <polygon
     style="fill:#ff6600;fill-opacity:0.777202;stroke:none;stroke-width:2.5px;filter:url(#filter3945)"
     points="52,16.861561 148,16.861561 196,100 148,183.13844 52,183.13844 4,100 "
     id="polygon10-0-3-6-4"
     transform="matrix(0.13988807,0,0,0.13988813,45.314114,151.74679)" />
  <polygon
     style="fill:#ff6600;fill-opacity:0.896373;stroke:none;stroke-width:2.5px;filter:url(#filter3949)"
     points="196,100 148,183.13844 52,183.13844 4,100 52,16.861561 148,16.861561 "
     id="polygon10-7-5-5-6-7"
     transform="matrix(0.13988807,0,0,0.13988813,45.314114,175.00695)" />
  <polygon
     style="fill:#ff6600;fill-opacity:0.279793;stroke:none;stroke-width:2.5px;filter:url(#filter3953)"
     points="52,183.13844 4,100 52,16.861561 148,16.861561 196,100 148,183.13844 "
     id="polygon10-6-9"
     transform="matrix(0.13988845,0,0,0.13988845,65.435738,116.52741)" />
  <polygon
     style="fill:#ff6600;fill-opacity:0.544041;stroke:none;stroke-width:2.5px;filter:url(#filter3957)"
     points="52,16.861561 148,16.861561 196,100 148,183.13844 52,183.13844 4,100 "
     id="polygon10-7-1-4"
     transform="matrix(0.13988845,0,0,0.13988845,65.435738,139.78762)" />
  <polygon
     style="fill:#ff6600;fill-opacity:0.761658;stroke:none;stroke-width:2.5px;filter:url(#filter3961)"
     points="52,16.861561 148,16.861561 196,100 148,183.13844 52,183.13844 4,100 "
     id="polygon10-0-3-9"
     transform="matrix(0.13988845,0,0,0.13988845,65.435738,163.04784)" />
  <polygon
     style="fill:#ff6600;stroke:none;stroke-width:2.5px;filter:url(#filter3965)"
     points="196,100 148,183.13844 52,183.13844 4,100 52,16.861561 148,16.861561 "
     id="polygon10-7-5-5-1"
     transform="matrix(0.13988845,0,0,0.13988845,65.435738,186.30805)" />
  <polygon
     style="fill:#ff6600;fill-opacity:0.0777202;stroke:none;stroke-width:2.5px;filter:url(#filter3969)"
     points="4,100 52,16.861561 148,16.861561 196,100 148,183.13844 52,183.13844 "
     id="polygon10-6-3-4"
     transform="matrix(0.13988839,0,0,0.13988845,85.588026,105.0079)" />
  <polygon
     style="fill:#ff6600;fill-opacity:0.38342;stroke:none;stroke-width:2.5px;filter:url(#filter3973)"
     points="148,16.861561 196,100 148,183.13844 52,183.13844 4,100 52,16.861561 "
     id="polygon10-7-1-8-5"
     transform="matrix(0.13988839,0,0,0.13988845,85.588026,128.26812)" />
  <polygon
     style="fill:#ff6600;fill-opacity:0.580311;stroke:none;stroke-width:2.5px;filter:url(#filter3977)"
     points="148,16.861561 196,100 148,183.13844 52,183.13844 4,100 52,16.861561 "
     id="polygon10-0-3-6-2"
     transform="matrix(0.13988839,0,0,0.13988845,85.588026,151.52834)" />
  <polygon
     style="fill:#ff6600;fill-opacity:0.699482;stroke:none;stroke-width:2.5px;filter:url(#filter3981)"
     points="148,183.13844 52,183.13844 4,100 52,16.861561 148,16.861561 196,100 "
     id="polygon10-7-5-5-6-8"
     transform="matrix(0.13988839,0,0,0.13988845,85.588026,174.78855)" />
  <polygon
     style="fill:#ff6600;fill-opacity:0.129534;stroke:none;stroke-width:2.5px;filter:url(#filter3985)"
     points="52,183.13844 4,100 52,16.861561 148,16.861561 196,100 148,183.13844 "
     id="polygon10-0-4-2"
     transform="matrix(0.13988813,0,0,0.13988813,105.61923,70.361442)" />
  <polygon
     style="fill:#ff6600;fill-opacity:0.310881;stroke:none;stroke-width:2.5px;filter:url(#filter3989)"
     points="52,183.13844 4,100 52,16.861561 148,16.861561 196,100 148,183.13844 "
     id="polygon10-6-2-1"
     transform="matrix(0.13988813,0,0,0.13988813,105.61923,116.88177)" />
  <polygon
     style="fill:#ff6600;fill-opacity:0.481865;stroke:none;stroke-width:2.5px;filter:url(#filter3993)"
     points="52,16.861561 148,16.861561 196,100 148,183.13844 52,183.13844 4,100 "
     id="polygon10-7-1-6-8"
     transform="matrix(0.13988813,0,0,0.13988813,105.61923,140.14193)" />
  <polygon
     style="fill:#ff6600;fill-opacity:0.606218;stroke:none;stroke-width:2.5px;filter:url(#filter3997)"
     points="52,16.861561 148,16.861561 196,100 148,183.13844 52,183.13844 4,100 "
     id="polygon10-0-3-7-6"
     transform="matrix(0.13988813,0,0,0.13988813,105.61923,163.4021)" />
  <polygon
     style="fill:#ff6600;stroke:none;stroke-width:2.5px;filter:url(#filter4001)"
     points="196,100 148,183.13844 52,183.13844 4,100 52,16.861561 148,16.861561 "
     id="polygon10-7-5-5-2-9"
     transform="matrix(0.13988813,0,0,0.13988813,105.61923,186.66226)" />
  <polygon
     style="fill:#ff6600;fill-opacity:0.124352;stroke:none;stroke-width:2.5px;filter:url(#filter4005)"
     points="4,100 52,16.861561 148,16.861561 196,100 148,183.13844 52,183.13844 "
     id="polygon10-6-3-1-3"
     transform="matrix(0.13988807,0,0,0.13988813,125.77147,105.3623)" />
  <polygon
     style="fill:#ff6600;fill-opacity:0.227979;stroke:none;stroke-width:2.5px;filter:url(#filter4009)"
     points="148,16.861561 196,100 148,183.13844 52,183.13844 4,100 52,16.861561 "
     id="polygon10-7-1-8-0-0"
     transform="matrix(0.13988807,0,0,0.13988813,125.77147,128.62246)" />
  <polygon
     style="fill:#ff6600;fill-opacity:0.647668;stroke:none;stroke-width:2.5px;filter:url(#filter4013)"
     points="148,16.861561 196,100 148,183.13844 52,183.13844 4,100 52,16.861561 "
     id="polygon10-0-3-6-4-4"
     transform="matrix(0.13988807,0,0,0.13988813,125.77147,151.88263)" />
  <polygon
     style="fill:#ff6600;fill-opacity:0.860104;stroke:none;stroke-width:2.5px;filter:url(#filter4017)"
     points="148,183.13844 52,183.13844 4,100 52,16.861561 148,16.861561 196,100 "
     id="polygon10-7-5-5-6-7-7"
     transform="matrix(0.13988807,0,0,0.13988813,125.77147,175.14279)" />
  <polygon
     style="fill:#ff6600;fill-opacity:0.290155;stroke:none;stroke-width:2.5px;filter:url(#filter4021)"
     points="4,100 52,16.861561 148,16.861561 196,100 148,183.13844 52,183.13844 "
     id="polygon10-6-0"
     transform="matrix(0.13988845,0,0,0.13988845,145.76181,117.35716)" />
  <polygon
     style="fill:#ff6600;fill-opacity:0.512953;stroke:none;stroke-width:2.5px;filter:url(#filter4025)"
     points="148,16.861561 196,100 148,183.13844 52,183.13844 4,100 52,16.861561 "
     id="polygon10-7-1-3"
     transform="matrix(0.13988845,0,0,0.13988845,145.76181,140.61739)" />
  <polygon
     style="fill:#ff6600;fill-opacity:0.694301;stroke:none;stroke-width:2.5px;filter:url(#filter4029)"
     points="148,16.861561 196,100 148,183.13844 52,183.13844 4,100 52,16.861561 "
     id="polygon10-0-3-8"
     transform="matrix(0.13988845,0,0,0.13988845,145.76181,163.87761)" />
  <polygon
     style="fill:#ff6600;stroke:none;stroke-width:2.5px;filter:url(#filter4033)"
     points="148,183.13844 52,183.13844 4,100 52,16.861561 148,16.861561 196,100 "
     id="polygon10-7-5-5-69"
     transform="matrix(0.13988845,0,0,0.13988845,145.76181,187.13782)" />
  <polygon
     style="fill:#ff6600;fill-opacity:0.11399;stroke:none;stroke-width:2.5px;filter:url(#filter4037)"
     points="196,100 148,183.13844 52,183.13844 4,100 52,16.861561 148,16.861561 "
     id="polygon10-7-5-6-9"
     transform="matrix(0.13988839,0,0,0.13988845,165.9141,82.577438)" />
  <polygon
     style="fill:#ff6600;fill-opacity:0;stroke:none;stroke-width:2.5px;filter:url(#filter4041)"
     points="52,16.861561 148,16.861561 196,100 148,183.13844 52,183.13844 4,100 "
     id="polygon10-6-3-9"
     transform="matrix(0.13988839,0,0,0.13988845,165.9141,105.83765)" />
  <polygon
     style="fill:#ff6600;fill-opacity:0.544041;stroke:none;stroke-width:2.5px;filter:url(#filter4045)"
     points="196,100 148,183.13844 52,183.13844 4,100 52,16.861561 148,16.861561 "
     id="polygon10-7-1-8-8"
     transform="matrix(0.13988839,0,0,0.13988845,165.9141,129.09789)" />
  <polygon
     style="fill:#ff6600;fill-opacity:0.621762;stroke:none;stroke-width:2.5px;filter:url(#filter4049)"
     points="196,100 148,183.13844 52,183.13844 4,100 52,16.861561 148,16.861561 "
     id="polygon10-0-3-6-44"
     transform="matrix(0.13988839,0,0,0.13988845,165.9141,152.3581)" />
  <polygon
     style="fill:#ff6600;fill-opacity:0.906736;stroke:none;stroke-width:2.5px;filter:url(#filter4053)"
     points="52,183.13844 4,100 52,16.861561 148,16.861561 196,100 148,183.13844 "
     id="polygon10-7-5-5-6-2"
     transform="matrix(0.13988839,0,0,0.13988845,165.9141,175.61832)" />
  <polygon
     style="fill:#ff6600;fill-opacity:0.290155;stroke:none;stroke-width:2.5px;filter:url(#filter3881-6)"
     points="52,183.13844 4,100 52,16.861561 148,16.861561 196,100 148,183.13844 "
     id="polygon10-6-6"
     transform="matrix(0.13988845,0,0,0.13988845,186.11296,117.56021)" />
  <polygon
     style="fill:#ff6600;fill-opacity:0.512953;stroke:none;stroke-width:2.5px;filter:url(#filter3885-8)"
     points="52,16.861561 148,16.861561 196,100 148,183.13844 52,183.13844 4,100 "
     id="polygon10-7-1-37"
     transform="matrix(0.13988845,0,0,0.13988845,186.11296,140.82044)" />
  <polygon
     style="fill:#ff6600;fill-opacity:0.694301;stroke:none;stroke-width:2.5px;filter:url(#filter3889-6)"
     points="52,16.861561 148,16.861561 196,100 148,183.13844 52,183.13844 4,100 "
     id="polygon10-0-3-3"
     transform="matrix(0.13988845,0,0,0.13988845,186.11296,164.08066)" />
  <polygon
     style="fill:#ff6600;stroke:none;stroke-width:2.5px;filter:url(#filter3893-1)"
     points="196,100 148,183.13844 52,183.13844 4,100 52,16.861561 148,16.861561 "
     id="polygon10-7-5-5-3"
     transform="matrix(0.13988845,0,0,0.13988845,186.11296,187.34087)" />
</svg>
